<?xml version='1.0' encoding='utf-8'?>
<svg xmlns="http://www.w3.org/2000/svg" clip-rule="evenodd" fill-rule="evenodd" stroke-linejoin="round" stroke-miterlimit="2" version="1.1" viewBox="0 0 18750 18750"> <g transform="scale(4.1667)"> <rect width="4500" height="4500" fill="url(#b)"/> <g transform="translate(-316 395.97)"> <circle cx="3001" cy="974.04" r="435.04" fill="url(#a)"/> </g> <g transform="matrix(1 0 0 1.1171 0 -526.79)"> <path d="m0 4500v-2258.4l703-605.97v2287.2h365v-1362.4h321v-780.95h139l298-256.87 298 256.87h117v780.95h322v-599.94l326 281.01v692.16h283v-973.17l377-324.96v-270.66h371v270.66l167 143.95v1414.5h221v-1076.1h192v2382h-4500z" fill="#8db8d1"/> </g> <g transform="matrix(-1 0 0 1.1225 4500 797.88)"> <path d="m0 2331 275-275v496h135v-302l113-113h372v113h135v886h217v-1446l197-303.28v-162h247v162l193 303.28h137v1446h104v-1177h125v-431l124-124v-440h233l101 101v625h133v938.5h254v-491.5h107l178-178h339v1177h142v-1843h386v534h253v1471h-4500v-967z" fill="#5e8ba6"/> </g> <g transform="translate(0 1202)"> <path d="m752 2409h116.94v479h254v146h175.06v-784h487v-291l328 328v820h225v-698h543v698h208v-219h106v-92h121v92h116v219h168v-451l138-138v-231h264v231l138 138v451h91v-698h110v-450h159v1339h-4500v-264h204v-378h311v451h61.939v-698h121.59l26.734-384 26.733 384z" fill="#3b5e72"/> </g> </g> <defs> <linearGradient id="b" x2="1" gradientTransform="matrix(5.1133e-13 1805 -1805 5.1133e-13 2250 0)" gradientUnits="userSpaceOnUse"><stop stop-color="#5e8ba6" offset="0"/><stop stop-color="#e0b1b2" offset=".42"/><stop stop-color="#d4e4ee" offset="1"/></linearGradient> <linearGradient id="a" x2="1" gradientTransform="matrix(3.7048e-14 605.03 -605.03 3.7048e-14 3001 539)" gradientUnits="userSpaceOnUse"><stop stop-color="#ee7a71" offset="0"/><stop stop-color="#d4e4ee" offset="1"/></linearGradient> </defs> </svg>